# xmcd
#
# Track frame offsets: 
#        150
#        450
#        21249
#        42501
#        76297
#        99994
#        132066
#        154266
#        174242
#        198447
#
# Disc length: 2927 seconds
#
# Revision: 0
# Processed by: cddbd v1.5.2PL0 Copyright (c) Steve Scherf et al.
# Submitted via: ExactAudioCopy v1.3
#
DISCID=6f0b6d0a
DTITLE=Two-Tone Steiny Featuring Kid Andersen - Welcome To The Club
DYEAR=2010
DGENRE=West Coast Blues
TTITLE0=Bet Your Bottom Dollar
TTITLE1=Two-Tone Steiny - There's A Party Goin' On
TTITLE2=Two-Tone Steiny - Welcome To The Club
TTITLE3=Two-Tone Steiny - Baby, You're The One
TTITLE4=Two-Tone Steiny - Give Me One More Chance
TTITLE5=Two-Tone Steiny - A Hundred Other Women
TTITLE6=Two-Tone Steiny - I Don't Need You Baby
TTITLE7=Two-Tone Steiny - Goin' Back To Chicago
TTITLE8=Two-Tone Steiny - A Better Man
TTITLE9=Two-Tone Steiny - You Don't Deserve To Be Treated This Way
EXTD=
EXTT0=
EXTT1=
EXTT2=
EXTT3=
EXTT4=
EXTT5=
EXTT6=
EXTT7=
EXTT8=
EXTT9=
PLAYORDER=
